<?xml version="1.0" standalone="no"?>
<!DOCTYPE svg PUBLIC "-//W3C//DTD SVG 20010904//EN"
 "http://www.w3.org/TR/2001/REC-SVG-20010904/DTD/svg10.dtd">
<svg version="1.0" xmlns="http://www.w3.org/2000/svg"
 width="1024.000000pt" height="1024.000000pt" viewBox="0 0 1024.000000 1024.000000"
 preserveAspectRatio="xMidYMid meet">
<metadata>
Created by potrace 1.14, written by Peter Selinger 2001-2017
</metadata>
<g transform="translate(0.000000,1024.000000) scale(0.100000,-0.100000)"
fill="#000000" stroke="none">
<path d="M5040 9977 c-3 -2 -75 -7 -160 -10 -994 -40 -2027 -432 -2804 -1066
-270 -221 -485 -434 -708 -701 -129 -154 -311 -414 -433 -619 -71 -118 -224
-419 -270 -531 -79 -191 -97 -239 -139 -361 -178 -532 -259 -1021 -259 -1569
0 -753 165 -1464 497 -2140 197 -402 416 -728 732 -1089 221 -252 506 -508
822 -736 34 -25 62 -49 62 -54 0 -5 -10 -13 -22 -16 -13 -4 -35 -19 -50 -33
-21 -19 -26 -31 -22 -51 18 -79 26 -101 35 -95 5 3 21 -2 35 -11 13 -9 29 -13
34 -10 6 3 10 -1 10 -9 0 -9 5 -16 10 -16 6 0 10 -4 10 -10 0 -12 26 -39 60
-63 18 -13 46 -17 112 -17 83 0 121 -12 77 -23 -15 -4 -20 -11 -15 -22 3 -9 3
-22 -1 -28 -5 -7 -9 -30 -9 -52 -2 -41 -5 -63 -34 -225 -6 -36 -16 -74 -22
-86 -5 -12 -8 -32 -7 -45 2 -13 0 -30 -5 -37 -4 -7 -10 -38 -12 -70 -6 -71
-11 -106 -14 -109 -2 -3 -3 -44 -1 -63 1 -7 378 -10 1111 -10 611 0 1110 1
1110 3 1 1 4 45 7 97 3 53 10 98 17 102 8 6 8 8 -1 8 -11 0 -11 61 1 235 19
287 19 289 -2 313 -15 17 -32 23 -59 24 -45 0 -120 -18 -128 -32 -10 -16 -28
-12 -22 4 3 8 0 20 -8 26 -10 8 -14 8 -17 -1 -3 -8 -8 -7 -19 3 -9 10 -26 13
-46 11 -17 -3 -39 0 -50 5 -12 7 -25 7 -35 1 -13 -7 -20 -4 -28 10 -6 13 -17
18 -28 15 -14 -5 -15 -4 -2 5 9 7 11 14 5 19 -16 12 -17 65 -1 59 10 -4 14 4
14 31 0 32 -2 34 -13 19 -13 -17 -31 -24 -20 -8 3 5 0 13 -6 17 -8 5 -10 -3
-7 -25 4 -27 0 -34 -24 -49 -15 -9 -28 -20 -28 -25 0 -5 -7 -7 -15 -3 -8 3
-15 1 -15 -4 0 -5 -7 -7 -15 -4 -9 4 -15 0 -15 -10 0 -18 -15 -21 -25 -6 -4 6
-15 8 -26 5 -10 -4 -19 -3 -19 2 0 5 -30 10 -67 11 -101 4 -126 7 -151 21 -12
6 -26 9 -31 6 -11 -6 -32 50 -26 68 2 7 7 35 10 62 3 28 8 62 11 78 4 15 2 27
-3 27 -6 0 -8 11 -6 24 5 27 -15 71 -63 137 -19 26 -34 53 -34 61 0 8 -16 33
-35 55 -19 23 -35 47 -35 55 0 8 -8 23 -17 34 -10 10 -29 39 -42 64 -13 25
-35 56 -48 70 -14 13 -33 43 -43 65 -11 23 -26 47 -34 54 -8 7 -12 19 -9 27 4
10 0 12 -10 8 -12 -4 -18 2 -23 20 -3 14 -11 26 -16 26 -15 0 -48 40 -48 57 0
7 7 16 15 19 8 4 12 10 9 16 -3 5 -12 7 -18 5 -9 -4 -11 3 -8 19 3 17 0 24
-12 24 -12 0 -16 10 -16 43 0 31 -6 49 -20 62 -23 21 -18 35 10 28 23 -6 27
12 5 21 -8 3 -15 12 -15 21 0 8 -5 15 -10 15 -6 0 -15 11 -22 25 -8 19 -8 28
2 40 7 8 8 15 3 15 -4 0 -17 15 -27 34 -10 19 -25 37 -33 41 -11 3 -12 9 -5
18 11 15 12 48 0 41 -8 -5 -10 2 -13 53 0 17 -6 37 -12 45 -13 16 -34 88 -28
98 6 9 -29 76 -51 101 -10 11 -23 18 -29 17 -7 -2 -22 8 -33 22 l-20 25 -24
-22 c-13 -13 -28 -23 -32 -23 -21 0 -76 34 -76 47 0 9 -6 13 -15 9 -8 -3 -15
-1 -15 3 0 5 -3 16 -6 24 -3 9 3 16 16 20 20 5 21 7 7 27 -8 12 -13 30 -10 40
3 10 0 26 -5 37 -7 13 -6 28 4 51 11 26 11 37 1 53 -6 10 -16 19 -22 19 -5 0
-23 28 -39 63 -30 64 -39 128 -18 135 17 5 15 22 -3 22 -10 0 -15 11 -15 35 0
19 -8 49 -18 67 -9 18 -17 50 -17 70 0 21 -3 38 -7 38 -4 0 -10 9 -13 21 -4
12 -12 18 -21 15 -8 -3 -14 -1 -14 5 0 6 -14 7 -35 3 -21 -4 -35 -2 -35 4 0 5
-20 19 -45 31 -25 12 -45 26 -45 31 0 24 -42 68 -60 63 -11 -3 -16 -11 -13
-19 3 -8 -1 -14 -11 -14 -10 0 -15 9 -16 27 -1 68 -4 80 -24 75 -17 -5 -18 -1
-12 36 5 33 3 42 -8 42 -8 0 -16 -6 -19 -12 -2 -8 -10 -1 -18 16 -12 25 -11
30 4 41 21 15 22 31 2 39 -9 3 -15 0 -15 -10 0 -8 -5 -12 -10 -9 -8 5 -7 11 1
21 9 11 8 19 -6 34 -18 19 -18 22 -2 58 11 23 12 31 4 20 -20 -25 -27 -22 -27
10 1 61 -6 106 -18 110 -15 5 -16 58 -1 67 6 4 8 13 5 21 -3 7 -1 16 3 18 5 3
6 17 3 31 -2 14 1 32 9 41 7 9 12 35 10 59 -1 35 2 46 19 55 23 12 28 32 5 24
-24 -9 -18 3 19 40 35 34 60 106 37 106 -6 0 -11 4 -11 10 0 17 32 48 45 44 7
-3 18 9 25 26 11 26 17 30 37 26 13 -4 23 -2 23 4 0 15 19 12 36 -5 20 -19 29
-19 49 1 9 9 13 24 10 35 -4 10 -2 19 3 19 13 0 22 49 10 56 -5 3 -4 12 3 20
6 8 9 17 6 20 -3 3 -2 17 3 29 6 16 5 25 -3 28 -9 3 -9 8 -1 18 6 8 11 25 12
38 0 13 6 27 13 31 6 4 9 12 5 18 -3 6 -2 13 3 16 5 3 7 24 4 46 -4 26 -2 40
5 40 7 0 9 7 5 17 -5 12 -3 14 7 8 8 -5 11 -3 8 6 -3 8 2 19 11 26 14 11 14
12 -3 13 -14 0 -16 3 -7 14 6 7 9 21 5 30 -3 9 -1 22 5 29 6 7 11 51 12 96 2
82 3 83 21 59 9 -12 18 -31 18 -41 0 -11 12 -32 27 -47 73 -74 75 -78 62 -82
-10 -3 -10 -6 -1 -12 7 -4 12 -2 12 3 0 6 9 11 20 11 23 0 27 -18 5 -26 -27
-11 -4 -25 30 -18 22 4 35 1 41 -7 4 -7 3 -14 -4 -17 -21 -7 -13 -20 16 -27
31 -8 62 -32 62 -50 0 -6 11 -22 25 -35 18 -17 28 -20 38 -12 17 14 39 0 32
-20 -8 -20 14 -35 25 -18 5 8 15 10 26 6 13 -5 15 -9 6 -18 -21 -21 -13 -27
18 -15 35 13 58 3 76 -31 6 -12 13 -19 16 -16 3 3 21 -11 40 -30 36 -37 58
-46 58 -23 1 7 6 5 14 -5 7 -10 20 -18 27 -18 8 0 20 -10 28 -22 13 -21 14
-21 27 -4 17 24 44 14 37 -13 -3 -12 -1 -21 6 -21 6 0 11 5 11 10 0 6 7 10 15
10 8 0 15 -6 15 -14 0 -21 21 -31 31 -15 7 11 13 9 31 -12 24 -28 98 -52 126
-42 9 4 13 2 9 -4 -4 -6 0 -16 8 -23 10 -9 15 -9 15 -1 0 6 9 11 20 11 11 0
20 -7 20 -15 0 -8 6 -15 14 -15 8 0 17 -7 20 -16 4 -10 13 -13 26 -9 16 5 20
2 20 -14 0 -22 26 -29 32 -10 6 19 44 -7 57 -39 12 -28 40 -40 111 -44 8 -1
31 -13 50 -28 19 -15 52 -33 73 -39 20 -7 37 -17 37 -23 0 -6 6 -8 14 -5 8 3
20 0 26 -8 6 -8 32 -24 57 -36 24 -12 47 -28 50 -35 3 -8 10 -14 17 -14 6 0
24 -16 39 -35 15 -19 34 -35 41 -35 7 0 31 -14 52 -31 22 -17 49 -35 62 -40
12 -5 22 -15 22 -23 0 -7 23 -31 50 -52 28 -21 50 -43 50 -49 0 -6 11 -21 25
-33 14 -12 25 -29 25 -38 0 -10 6 -13 18 -10 23 8 57 -27 49 -49 -4 -8 -2 -15
4 -15 5 0 12 -8 16 -17 10 -29 35 -53 53 -53 10 0 20 -9 23 -20 3 -12 14 -20
25 -20 11 0 29 -10 39 -23 24 -30 45 -43 37 -23 -7 19 17 21 46 6 47 -25 155
-14 167 17 3 7 11 13 18 13 7 0 27 22 44 49 17 26 40 56 50 65 11 10 17 24 14
32 -3 9 0 12 8 9 9 -3 19 7 28 27 8 18 17 35 20 38 18 16 54 62 44 56 -7 -4
-13 -2 -13 3 0 6 9 11 20 11 11 0 20 4 20 9 0 14 67 80 74 74 3 -4 6 -2 6 4 0
5 10 22 23 36 12 14 32 37 44 52 13 14 27 24 33 20 9 -5 14 7 12 26 -1 4 7 5
18 2 14 -4 23 2 31 21 7 14 20 26 30 26 10 0 26 11 37 25 11 14 24 25 29 24
22 -4 34 3 44 23 6 14 20 24 35 24 14 1 34 10 44 19 10 9 25 17 33 19 8 1 21
8 29 16 8 8 38 26 66 40 29 14 50 30 47 37 -2 7 2 10 10 7 8 -3 26 7 40 22 22
23 28 26 35 14 8 -13 10 -12 10 3 0 9 4 17 9 17 14 0 104 61 114 77 4 7 14 13
22 13 8 0 19 9 25 20 6 11 16 17 25 14 9 -4 15 0 15 10 0 9 4 15 9 13 4 -1 46
25 92 58 95 68 117 82 141 91 10 3 15 10 12 15 -3 5 2 6 10 3 9 -4 18 1 22 10
3 9 14 16 25 16 10 0 25 10 33 22 9 12 16 17 16 10 0 -10 4 -10 19 0 11 7 18
16 15 20 -3 4 2 5 11 2 8 -4 26 1 40 10 14 9 30 14 35 11 6 -4 13 1 16 9 3 9
12 16 20 16 22 0 64 22 58 32 -3 4 3 11 13 14 55 18 93 44 93 64 0 6 7 18 15
26 8 9 15 26 15 38 0 13 6 29 14 36 8 6 12 18 9 26 -3 8 4 26 17 39 21 22 21
24 3 34 -14 8 -14 10 -3 11 11 0 16 14 18 53 4 73 5 79 24 105 l16 24 8 -24
c4 -12 7 -28 6 -35 -2 -6 2 -14 8 -18 5 -3 10 -14 10 -25 0 -10 6 -20 14 -23
11 -4 23 -48 27 -94 0 -5 7 -16 16 -25 8 -9 16 -31 17 -47 1 -16 5 -33 9 -37
4 -4 7 -14 7 -21 0 -8 9 -32 19 -54 11 -22 17 -48 14 -56 -4 -10 -2 -14 4 -10
7 5 9 0 6 -13 -3 -12 0 -20 7 -20 10 0 10 -3 0 -15 -10 -13 -10 -19 4 -33 9
-10 16 -25 16 -34 0 -8 3 -18 7 -22 4 -4 9 -19 11 -34 2 -14 8 -32 13 -38 7
-8 6 -13 -2 -16 -7 -2 -3 -14 13 -31 28 -30 38 -34 38 -13 0 26 68 -5 81 -38
7 -15 21 -36 32 -46 15 -15 17 -22 8 -39 -9 -16 -9 -19 2 -15 15 5 40 -77 37
-123 -4 -60 0 -83 15 -83 8 0 15 -4 15 -10 0 -5 -5 -10 -11 -10 -8 0 -9 -11
-4 -32 4 -18 8 -44 10 -58 1 -14 3 -27 5 -30 6 -13 7 -97 0 -109 -4 -8 -5 -24
0 -35 8 -22 -12 -143 -23 -138 -16 5 -28 1 -22 -9 4 -6 -1 -16 -11 -23 -11 -8
-15 -21 -11 -34 3 -12 1 -25 -4 -28 -5 -3 -9 -14 -9 -25 0 -11 -7 -22 -15 -25
-8 -4 -12 -10 -9 -15 3 -5 0 -9 -5 -9 -6 0 -11 -14 -11 -31 0 -20 -4 -29 -12
-26 -18 6 -50 -12 -42 -24 3 -5 -6 -22 -21 -36 -16 -16 -24 -34 -22 -45 4 -14
-1 -18 -22 -18 -14 0 -38 -11 -53 -25 -15 -14 -32 -25 -38 -25 -5 0 -10 -9
-10 -19 0 -11 -6 -22 -12 -24 -10 -4 -10 -8 1 -15 11 -8 13 -26 9 -77 -3 -37
-10 -70 -14 -74 -14 -10 -17 -63 -5 -71 8 -5 7 -16 -3 -42 -8 -19 -12 -45 -9
-56 4 -16 -1 -24 -18 -31 -18 -7 -19 -10 -6 -10 21 -1 22 -10 3 -25 -18 -14
-35 -72 -17 -62 6 4 11 2 11 -3 0 -6 -4 -11 -10 -11 -6 0 -6 -9 -1 -23 5 -13
6 -29 1 -36 -4 -7 -5 -22 -3 -32 3 -12 0 -19 -8 -19 -11 0 -11 -2 1 -10 13 -8
12 -10 -3 -10 -11 0 -17 -5 -14 -12 2 -7 10 -12 16 -10 20 4 12 -14 -20 -44
-20 -18 -33 -24 -36 -17 -3 7 -17 10 -37 6 -26 -4 -39 0 -55 16 -11 11 -21 26
-21 31 0 19 -19 10 -40 -20 -12 -17 -20 -40 -19 -53 1 -12 -3 -33 -8 -47 -6
-14 -15 -61 -21 -105 -7 -47 -22 -103 -38 -135 -20 -42 -24 -58 -16 -71 8 -13
8 -19 -3 -23 -8 -3 -15 -16 -15 -28 0 -13 -7 -32 -15 -42 -8 -11 -15 -34 -15
-52 0 -18 -5 -36 -10 -39 -6 -3 -10 -15 -10 -25 0 -14 -5 -18 -16 -13 -14 5
-15 1 -9 -25 3 -18 3 -32 -2 -32 -12 0 -34 -51 -26 -62 3 -6 1 -27 -5 -47 -6
-20 -16 -62 -22 -94 -8 -42 -16 -57 -28 -57 -13 0 -14 -2 -3 -9 21 -13 5 -64
-32 -103 -35 -35 -97 -124 -97 -137 0 -4 -12 -18 -26 -32 -14 -13 -30 -33 -35
-44 -5 -11 -27 -47 -49 -80 -21 -33 -42 -67 -46 -75 -3 -8 -11 -25 -16 -37 -8
-17 -8 -26 2 -38 8 -10 9 -15 1 -15 -11 0 -5 -56 9 -75 10 -14 35 -108 32
-119 -2 -5 1 -12 6 -15 4 -3 16 -25 25 -48 15 -37 15 -43 2 -43 -8 0 -15 -4
-15 -10 0 -5 -8 -6 -17 -3 -13 5 -15 2 -10 -11 5 -14 3 -17 -8 -13 -15 6 -29
-4 -55 -42 -8 -12 -21 -19 -31 -16 -9 3 -22 -1 -29 -10 -7 -8 -23 -15 -36 -15
-15 0 -24 -6 -24 -16 0 -8 -4 -13 -9 -9 -5 3 -16 -2 -24 -10 -9 -8 -21 -15
-27 -15 -6 0 -30 -9 -52 -20 -23 -11 -46 -20 -51 -20 -6 0 -16 -8 -24 -17 -11
-14 -16 -15 -20 -5 -4 10 -10 10 -28 -2 -13 -9 -31 -13 -39 -10 -9 3 -16 2
-16 -4 0 -5 7 -12 15 -16 19 -7 19 -26 0 -26 -8 0 -15 -5 -15 -11 0 -5 5 -7
10 -4 6 3 10 2 10 -4 0 -6 -10 -13 -23 -16 -12 -4 -27 -16 -32 -28 -6 -12 -15
-22 -22 -22 -6 0 -14 -3 -18 -7 -4 -4 -12 -5 -19 -2 -7 3 -20 -4 -31 -15 -14
-16 -15 -24 -6 -35 9 -10 9 -16 1 -21 -8 -5 -8 -11 1 -21 20 -24 3 -62 -32
-69 -18 -4 -34 -3 -38 3 -24 38 -59 76 -83 88 -28 15 -107 19 -109 7 -3 -27
-4 -123 -1 -114 2 6 8 11 14 11 5 0 6 -9 3 -20 -4 -12 -2 -20 5 -20 7 0 10 -8
7 -20 -4 -14 0 -20 11 -20 14 -1 13 -4 -5 -19 -29 -24 -29 -31 -2 -24 19 5 21
3 16 -19 -5 -17 -2 -30 8 -38 8 -7 15 -17 15 -23 0 -7 -4 -7 -12 1 -23 23 -28
12 -5 -14 12 -14 23 -31 23 -37 1 -7 2 -17 3 -24 0 -6 8 -19 17 -27 8 -9 11
-16 6 -16 -13 0 -8 -31 12 -69 15 -28 15 -35 4 -42 -9 -6 -10 -11 -2 -16 6 -5
15 -19 19 -33 4 -13 15 -31 23 -40 14 -13 14 -15 0 -18 -9 -2 -19 -9 -22 -17
-3 -9 0 -12 9 -9 9 4 16 -3 21 -20 l6 -26 1009 0 1009 0 0 23 c0 13 -4 27 -9
33 -5 5 -16 43 -25 84 -22 112 -28 135 -36 140 -16 11 -38 125 -27 138 7 9 7
16 0 20 -5 4 -11 14 -11 22 -4 46 -12 74 -27 90 -9 10 -14 24 -10 30 4 6 -1
20 -11 31 -16 17 -16 22 -4 29 13 8 13 14 -1 42 -9 18 -17 55 -18 83 -1 27 -5
52 -9 55 -7 5 -7 26 -4 114 3 55 56 102 163 144 116 46 129 53 129 70 0 9 3
12 7 9 12 -13 34 48 29 78 -6 28 0 35 76 95 202 159 510 457 667 645 120 144
297 382 378 510 81 126 225 374 227 391 1 7 7 18 13 25 6 8 32 59 58 114 264
558 403 1070 466 1720 15 158 15 594 0 765 -55 607 -193 1132 -438 1665 -35
77 -72 151 -81 165 -9 14 -17 27 -17 30 -4 28 -155 285 -269 458 -56 84 -206
287 -291 391 -245 301 -606 638 -920 860 -177 124 -531 341 -558 341 -6 0 3
-80 13 -120 7 -25 6 -36 -3 -42 -9 -6 -9 -8 1 -8 14 0 17 -36 3 -44 -4 -3 -6
-24 -4 -47 3 -24 0 -39 -5 -35 -12 7 -22 -27 -22 -72 0 -18 -6 -43 -14 -55
-19 -28 -31 -97 -19 -97 7 0 6 -14 0 -39 -6 -22 -14 -38 -18 -35 -17 10 -21
-20 -4 -33 16 -11 17 -13 3 -13 -9 0 -17 -8 -17 -17 0 -29 -12 -75 -27 -110
-8 -18 -15 -36 -15 -40 0 -5 -9 -11 -20 -15 -23 -9 -38 -40 -21 -46 6 -2 9 -9
6 -17 -3 -8 -12 -11 -19 -8 -8 2 -30 0 -50 -7 l-35 -12 0 -63 c0 -66 -28 -141
-56 -152 -7 -2 -20 -20 -29 -39 -13 -27 -25 -36 -60 -45 -49 -13 -61 -31 -51
-84 5 -26 0 -43 -25 -84 -18 -28 -36 -51 -41 -51 -5 0 -6 -10 -3 -21 5 -16 4
-19 -6 -14 -9 6 -11 4 -6 -8 7 -20 -14 -67 -31 -67 -10 0 -10 5 -2 20 8 15 8
18 -3 15 -7 -3 -18 -19 -24 -35 -9 -24 -8 -28 4 -23 13 5 13 1 -1 -26 -9 -17
-19 -31 -22 -31 -3 0 -2 6 2 13 4 6 3 8 -1 4 -5 -4 -10 -15 -11 -25 -2 -9 -8
-18 -13 -20 -6 -2 -11 -12 -11 -22 0 -10 -13 -29 -28 -42 -15 -12 -28 -27 -29
-31 -4 -20 -29 -67 -35 -67 -5 0 -8 -7 -8 -16 0 -8 -14 -29 -31 -46 -16 -17
-33 -45 -36 -62 -7 -36 -34 -80 -73 -117 -15 -14 -29 -32 -32 -40 -4 -12 -8
-11 -25 4 -11 9 -25 17 -31 17 -7 0 -12 5 -12 10 0 6 -5 10 -11 10 -5 0 -7 -5
-4 -11 4 -6 -12 -26 -34 -46 -30 -25 -39 -39 -32 -47 6 -7 8 -22 4 -34 -4 -17
-2 -21 10 -16 12 4 14 -2 12 -30 -5 -47 -12 -58 -38 -51 -12 2 -16 2 -9 -1 6
-3 12 -10 12 -15 0 -6 -4 -8 -9 -4 -16 9 -24 -15 -11 -30 10 -12 9 -15 -6 -15
-11 0 -30 -12 -43 -25 -23 -25 -51 -33 -51 -15 0 5 -16 1 -35 -10 -33 -19 -64
-18 -66 1 -1 5 -2 26 -4 47 -1 20 -5 45 -10 55 -5 13 -1 25 16 43 20 21 21 27
9 34 -13 8 -12 10 2 10 9 0 19 9 22 20 3 11 9 29 12 40 3 13 1 20 -7 18 -6 -2
-15 10 -20 26 -7 25 -4 33 21 56 29 27 41 70 20 70 -5 0 -10 9 -10 20 0 11 -6
20 -12 20 -7 0 -5 5 5 11 13 8 15 14 7 30 -9 15 -7 19 6 19 10 0 14 5 10 15
-3 8 0 15 5 15 7 0 9 11 6 25 -3 18 2 30 16 40 19 13 19 15 3 39 -14 23 -14
26 -1 26 8 0 15 5 15 12 0 7 11 22 24 33 13 11 25 27 27 35 3 19 -21 110 -30
110 -3 0 -6 13 -7 29 -1 23 3 27 18 24 21 -6 26 22 6 30 -9 3 -6 10 9 21 17
13 20 22 14 43 -4 16 -4 46 1 68 5 22 7 54 3 71 -4 24 -1 33 10 38 9 3 13 11
10 17 -12 18 -12 94 -1 101 13 9 17 68 5 68 -5 0 -9 8 -9 17 0 13 3 14 12 5 7
-7 16 -12 21 -12 13 0 1 128 -13 145 -8 10 -6 15 10 20 15 5 19 12 15 26 -4
11 -2 19 4 19 6 0 11 5 11 10 0 6 -10 10 -22 10 -20 0 -21 1 -3 20 11 12 18
34 17 53 -1 40 3 47 51 76 52 31 51 63 -3 88 -41 19 -48 31 -29 50 9 9 8 16
-5 28 -20 20 -21 29 -2 22 20 -8 29 24 16 57 -13 34 -13 49 0 41 6 -4 10 5 10
19 0 16 -6 26 -14 26 -18 0 -15 19 8 55 15 22 16 32 8 46 -7 11 -8 19 -2 21
12 4 19 118 8 118 -5 0 -8 -5 -8 -12 0 -6 -3 -8 -6 -5 -12 12 24 54 60 71 51
24 62 50 32 70 -13 8 -35 18 -49 21 -32 8 -38 31 -31 125 7 87 6 181 0 188
-10 9 -145 43 -291 72 -168 33 -393 65 -565 79 -145 12 -463 25 -470 18z
m1310 -707 c0 -5 -2 -10 -4 -10 -3 0 -8 5 -11 10 -3 6 -1 10 4 10 6 0 11 -4
11 -10z m890 -710 c0 -5 -5 -10 -11 -10 -5 0 -7 5 -4 10 3 6 8 10 11 10 2 0 4
-4 4 -10z m1201 -141 c6 -12 7 -24 3 -28 -5 -3 -15 -19 -23 -36 -7 -16 -18
-38 -23 -48 -9 -19 7 -51 21 -42 24 14 97 -99 81 -125 -4 -7 -6 -19 -3 -27 3
-7 0 -20 -7 -29 -11 -12 -15 -12 -21 -2 -7 10 -9 9 -9 -4 0 -9 -13 -23 -30
-32 -18 -8 -30 -10 -30 -4 0 7 -4 7 -12 1 -32 -24 -113 -4 -121 29 -5 17 33
160 51 194 17 31 42 91 42 101 0 18 41 73 55 73 8 0 19 -10 26 -21z m159 -279
c4 0 7 -20 6 -45 -1 -25 2 -45 6 -45 4 0 5 -6 2 -14 -4 -10 1 -13 18 -11 38 6
52 10 66 18 6 5 17 5 22 2 6 -3 23 3 39 14 16 12 33 21 37 21 10 0 44 -31 44
-40 0 -13 -45 -55 -75 -70 -17 -8 -32 -17 -35 -20 -3 -3 -22 -14 -42 -24 -22
-11 -38 -26 -38 -37 0 -9 -3 -19 -7 -21 -5 -1 -17 -21 -28 -43 -26 -52 -115
-145 -138 -145 -11 0 -21 9 -24 20 -3 11 -9 20 -14 20 -5 0 -9 7 -9 15 0 8 5
15 10 15 6 0 10 6 10 13 0 6 16 25 35 40 19 15 35 34 35 42 0 8 5 15 10 15 6
0 10 6 10 14 0 8 5 16 12 18 10 4 10 18 0 69 -19 96 -17 172 4 209 l19 31 9
-30 c5 -17 12 -31 16 -31z m285 -420 c-3 -5 -2 -10 4 -10 5 0 12 4 16 10 3 5
15 6 28 1 13 -5 30 -5 39 0 12 7 21 3 32 -13 9 -12 16 -17 16 -10 0 27 17 10
26 -28 10 -34 9 -40 -6 -45 -19 -6 -70 13 -82 30 -5 6 -8 6 -8 0 0 -5 -19 -11
-42 -12 -49 -3 -74 -23 -63 -50 5 -10 9 -20 9 -23 4 -16 33 -50 42 -50 22 0
34 -93 14 -105 -6 -4 -18 -1 -27 7 -12 9 -15 9 -9 1 6 -12 -19 -19 -47 -14 -5
1 -21 3 -36 5 -29 3 -98 43 -120 70 -11 13 -11 20 3 41 18 28 73 37 63 10 -4
-8 -1 -17 5 -21 6 -4 8 -3 5 3 -4 6 2 13 14 16 16 4 18 3 9 -8 -9 -11 -7 -12
9 -8 24 6 27 19 8 37 -8 8 -11 31 -9 60 4 50 39 94 84 108 13 3 24 6 26 7 2 1
0 -3 -3 -9z m271 -195 c2 -46 4 -51 12 -39 11 18 52 20 95 5 36 -12 38 -14 32
-48 -11 -71 -175 -280 -209 -267 -12 4 -15 2 -11 -9 7 -17 -9 -25 -45 -22 -19
1 -26 8 -28 27 -2 20 7 34 45 64 26 22 53 46 60 54 11 13 12 13 13 0 0 -8 12
3 27 25 15 22 35 46 45 53 20 15 25 37 6 27 -7 -4 -4 1 7 10 14 12 16 19 7 22
-6 3 -10 9 -7 13 3 5 -7 3 -22 -5 -15 -8 -36 -15 -45 -15 -23 0 -88 -39 -88
-53 0 -6 -3 -8 -6 -4 -8 7 -44 -24 -44 -39 0 -7 -7 -15 -16 -18 -9 -3 -12 -2
-8 5 3 6 -3 5 -15 -3 -24 -15 -36 -6 -46 33 -7 27 -6 28 60 84 20 17 62 54 93
83 62 58 86 63 88 17z m-2761 -254 c-6 -5 -25 10 -25 20 0 5 6 4 14 -3 8 -7
12 -15 11 -17z m2920 -44 c11 -1 30 -11 42 -24 18 -19 21 -32 18 -82 -2 -43
-8 -64 -23 -79 -11 -11 -23 -18 -26 -14 -3 3 -6 -2 -6 -11 0 -9 -6 -20 -13
-24 -18 -11 -52 -63 -41 -63 5 0 1 -5 -8 -11 -22 -12 -24 -31 -3 -23 11 4 13
2 9 -9 -3 -8 4 -24 16 -35 18 -17 20 -24 11 -41 -12 -22 -21 -24 -68 -15 -35
7 -63 48 -63 92 0 33 -7 41 -42 47 -46 9 -68 27 -68 57 0 15 5 28 11 28 7 0 9
10 5 25 -4 17 1 36 18 62 41 63 49 70 104 93 28 12 52 27 52 32 0 6 11 7 28 3
15 -5 36 -8 47 -8z m240 -313 c-1 -14 -9 -34 -18 -45 -9 -10 -17 -21 -17 -24
0 -2 -18 -23 -40 -45 -44 -45 -50 -69 -20 -77 28 -7 54 -53 51 -88 -4 -49 -12
-67 -27 -61 -8 3 -13 0 -11 -7 1 -7 -4 -12 -12 -12 -8 0 -29 -13 -47 -29 -26
-22 -31 -33 -24 -46 5 -10 12 -32 15 -51 7 -37 15 -51 15 -26 0 10 5 17 10 17
6 0 10 6 10 14 0 17 51 62 81 71 11 4 35 4 52 1 56 -11 100 -106 75 -162 -23
-49 -106 -80 -137 -51 -11 10 -13 10 -7 0 4 -7 3 -13 -3 -13 -5 0 -11 6 -14
13 -9 23 -42 -9 -50 -49 -13 -66 -13 -76 5 -88 14 -8 23 -8 39 2 11 7 23 11
26 9 4 -5 27 11 58 40 8 7 35 24 62 38 l48 25 18 -22 c10 -12 16 -30 13 -41
-2 -10 2 -21 11 -24 10 -4 13 -14 8 -32 -4 -19 -3 -22 4 -11 6 8 13 12 16 8
12 -12 10 -104 -3 -130 -7 -15 -14 -37 -15 -48 -1 -11 -6 -20 -13 -20 -6 0
-19 -9 -29 -20 -10 -11 -24 -20 -30 -20 -7 0 -16 -7 -19 -16 -4 -10 -14 -14
-26 -11 -11 3 -27 -1 -34 -9 -8 -8 -22 -11 -30 -8 -9 3 -16 2 -16 -3 0 -15
-87 -32 -100 -19 -7 7 -10 6 -10 -3 0 -9 -9 -11 -28 -6 -21 4 -33 1 -47 -15
-10 -11 -24 -20 -32 -20 -8 0 -12 -4 -9 -9 3 -5 -1 -14 -9 -21 -8 -7 -15 -19
-15 -26 0 -8 -3 -14 -8 -14 -23 0 -88 -80 -84 -102 1 -5 -2 -8 -6 -8 -5 0 -17
-8 -28 -18 -65 -59 -109 -63 -116 -12 -3 17 -1 30 4 30 4 0 8 7 8 15 0 9 14
24 30 33 17 9 33 25 36 35 3 9 10 17 15 17 15 0 34 23 34 40 0 8 7 15 15 15 8
0 21 12 28 27 7 15 21 30 32 33 11 4 18 10 15 15 -3 5 1 15 9 23 8 7 15 34 17
58 1 24 4 47 6 51 4 9 65 -12 76 -26 6 -7 7 -4 3 7 -4 12 1 21 17 27 31 13 57
35 57 48 0 6 -6 9 -14 6 -7 -3 -21 7 -31 22 -12 19 -19 23 -25 14 -6 -9 -9 -9
-15 0 -4 6 -4 14 -1 17 3 3 1 13 -4 22 -8 16 20 187 35 211 9 14 -17 38 -36
33 -21 -6 -29 7 -35 59 -6 54 -34 157 -44 163 -5 3 -20 -1 -35 -9 -17 -9 -36
-11 -53 -7 -22 7 -27 13 -24 37 4 45 12 77 19 70 3 -3 23 8 43 24 21 17 43 30
48 30 6 0 15 7 20 16 5 9 11 14 13 12 8 -6 79 57 79 71 0 8 6 11 16 7 8 -3 12
-2 9 4 -3 6 -2 10 3 10 5 0 12 9 15 20 3 11 12 20 20 20 8 0 17 9 20 21 3 12
10 18 15 15 5 -3 12 3 15 14 4 17 9 18 34 10 22 -8 28 -16 28 -36z m-6525 -23
c0 -5 12 -12 27 -16 19 -4 23 -9 14 -14 -10 -6 -8 -10 6 -15 17 -7 17 -8 1
-17 -10 -6 -18 -15 -18 -20 0 -6 5 -7 10 -4 6 3 10 1 10 -4 0 -6 -5 -11 -11
-11 -6 0 -8 -7 -5 -16 4 -10 -1 -22 -11 -30 -21 -16 -103 -19 -103 -4 0 6 -9
19 -20 30 -16 16 -18 25 -11 39 6 10 8 21 5 24 -4 3 3 19 14 34 15 21 30 29
56 31 20 2 36 -2 36 -7z m361 -681 c10 0 19 -3 20 -7 0 -5 2 -18 5 -29 4 -25
-9 -38 -47 -48 -31 -7 -46 7 -51 49 -2 23 2 32 22 42 15 7 26 9 28 3 2 -6 12
-10 23 -10z m3076 -1466 c-3 -3 -12 -4 -19 -1 -8 3 -5 6 6 6 11 1 17 -2 13 -5z
m1323 -214 c0 -5 -4 -10 -10 -10 -5 0 -10 5 -10 10 0 6 5 10 10 10 6 0 10 -4
10 -10z"/>
<path d="M8363 8217 c-4 -7 -9 -21 -10 -32 -2 -11 -5 -29 -8 -41 -4 -17 0 -21
25 -21 16 0 27 4 24 9 -8 13 3 9 19 -6 12 -12 14 -8 15 27 2 37 -2 44 -28 59
-22 13 -31 14 -37 5z"/>
<path d="M9195 7119 c-44 -33 -69 -57 -46 -44 9 5 8 -1 -4 -18 -12 -20 -14
-30 -6 -44 6 -10 11 -13 11 -7 0 7 11 15 25 18 14 4 45 27 69 51 23 25 48 45
54 45 7 0 12 7 12 15 0 27 -70 17 -115 -16z"/>
<path d="M9372 6662 c-17 -3 -22 -9 -20 -25 2 -15 9 -21 21 -19 10 2 26 -3 35
-10 9 -7 14 -8 10 -4 -4 5 -4 14 1 20 28 37 14 48 -47 38z"/>
<path d="M9528 6399 c4 -26 8 -30 26 -25 11 3 25 6 30 6 5 0 3 7 -4 15 -7 8
-9 15 -4 16 11 1 -27 17 -42 18 -6 1 -9 -11 -6 -30z"/>
<path d="M9609 6098 c-15 -15 -24 -29 -21 -32 3 -4 1 -6 -5 -6 -14 0 -53 -35
-53 -48 0 -6 -15 -23 -34 -37 -39 -30 -58 -62 -26 -45 10 5 25 7 33 5 7 -3 19
1 26 9 6 7 21 12 32 9 13 -4 19 -1 17 8 -2 9 4 13 17 11 11 -2 17 -1 13 3 -4
4 2 15 14 24 22 18 39 114 22 123 -5 2 -21 -8 -35 -24z"/>
<path d="M6601 9727 c-29 -29 -5 -47 65 -47 34 0 42 -3 38 -15 -4 -8 -1 -15 6
-15 7 0 9 -8 5 -20 -4 -12 0 -31 9 -44 10 -16 11 -27 5 -33 -7 -7 -7 -23 0
-49 8 -27 7 -41 -1 -52 -7 -8 -8 -16 -2 -20 8 -6 10 -42 6 -114 -1 -14 -13
-40 -27 -56 -32 -38 -31 -43 5 -64 31 -18 39 -42 18 -52 -10 -3 -9 -8 2 -18
10 -8 14 -29 13 -58 -7 -179 -4 -167 -49 -218 -48 -55 -46 -76 11 -86 19 -4
35 -8 35 -10 0 -2 -5 -18 -11 -36 -9 -26 -9 -34 2 -41 12 -8 11 -11 -2 -22
-18 -14 -14 -37 7 -37 10 0 12 -5 5 -17 -6 -10 -13 -31 -17 -48 -4 -16 -8 -32
-9 -35 -33 -108 -32 -132 3 -102 12 11 22 24 22 30 0 13 45 99 63 122 16 18
33 56 43 90 3 14 12 32 18 40 7 8 18 34 26 58 7 23 19 47 27 53 7 6 13 22 13
35 0 37 37 91 68 98 52 11 57 19 44 76 -11 48 -10 55 10 94 13 22 26 43 31 44
4 2 7 10 7 18 0 7 9 33 19 56 40 88 51 116 51 127 0 6 7 11 15 11 9 0 15 9 15
25 0 28 20 75 32 75 19 0 6 27 -19 37 -16 6 -84 36 -153 65 -260 113 -432 172
-449 155z"/>
<path d="M6350 9140 c0 -5 5 -10 10 -10 6 0 10 5 10 10 0 6 -4 10 -10 10 -5 0
-10 -4 -10 -10z"/>
<path d="M6991 8234 c0 -11 3 -14 6 -6 3 7 2 16 -1 19 -3 4 -6 -2 -5 -13z"/>
<path d="M6235 7380 c-10 -16 5 -33 19 -21 18 15 29 1 14 -16 -9 -11 -9 -16 2
-23 9 -5 17 -5 21 1 3 5 12 7 20 4 10 -4 15 1 15 14 0 11 -2 18 -5 16 -2 -3
-9 2 -15 10 -14 19 -62 29 -71 15z"/>
<path d="M6147 7360 c-10 -10 -14 -20 -9 -23 7 -5 42 26 42 38 0 10 -16 3 -33
-15z"/>
<path d="M6110 7310 c0 -13 5 -20 13 -17 6 2 12 10 12 17 0 7 -6 15 -12 18 -8
2 -13 -5 -13 -18z"/>
<path d="M6241 7314 c0 -11 3 -14 6 -6 3 7 2 16 -1 19 -3 4 -6 -2 -5 -13z"/>
<path d="M6280 7160 c0 -5 5 -10 10 -10 6 0 10 5 10 10 0 6 -4 10 -10 10 -5 0
-10 -4 -10 -10z"/>
<path d="M3265 4921 c-3 -5 -1 -12 5 -16 5 -3 10 1 10 9 0 18 -6 21 -15 7z"/>
<path d="M2540 4620 c0 -5 5 -10 10 -10 6 0 10 5 10 10 0 6 -4 10 -10 10 -5 0
-10 -4 -10 -10z"/>
<path d="M2385 4229 c-4 -6 -5 -13 -2 -16 7 -7 27 6 27 18 0 12 -17 12 -25 -2z"/>
<path d="M2857 4079 c7 -7 15 -10 18 -7 3 3 -2 9 -12 12 -14 6 -15 5 -6 -5z"/>
<path d="M7650 3920 c0 -5 5 -10 10 -10 6 0 10 5 10 10 0 6 -4 10 -10 10 -5 0
-10 -4 -10 -10z"/>
<path d="M2390 3910 c0 -5 5 -10 10 -10 6 0 10 5 10 10 0 6 -4 10 -10 10 -5 0
-10 -4 -10 -10z"/>
<path d="M2891 3904 c0 -11 3 -14 6 -6 3 7 2 16 -1 19 -3 4 -6 -2 -5 -13z"/>
<path d="M3915 3551 c-6 -5 -21 -11 -35 -13 l-25 -4 26 -5 c19 -4 30 0 38 13
12 20 10 23 -4 9z"/>
<path d="M3951 3534 c0 -11 3 -14 6 -6 3 7 2 16 -1 19 -3 4 -6 -2 -5 -13z"/>
<path d="M6390 3541 c0 -6 4 -13 10 -16 6 -3 7 1 4 9 -7 18 -14 21 -14 7z"/>
<path d="M3975 3530 c-3 -6 1 -7 9 -4 18 7 21 14 7 14 -6 0 -13 -4 -16 -10z"/>
<path d="M5174 3490 c-45 -10 -56 -19 -48 -43 15 -48 82 -76 145 -60 30 8 35
14 40 51 4 35 2 43 -14 48 -10 3 -21 4 -23 1 -3 -3 -19 -2 -37 2 -18 4 -46 4
-63 1z"/>
<path d="M6287 3489 c7 -7 15 -10 18 -7 3 3 -2 9 -12 12 -14 6 -15 5 -6 -5z"/>
<path d="M6270 3450 c-8 -5 -10 -10 -5 -10 6 0 17 5 25 10 8 5 11 10 5 10 -5
0 -17 -5 -25 -10z"/>
<path d="M2945 3380 c-3 -5 1 -10 9 -10 9 0 16 5 16 10 0 6 -4 10 -9 10 -6 0
-13 -4 -16 -10z"/>
<path d="M6350 3360 c0 -5 5 -10 11 -10 5 0 7 5 4 10 -3 6 -8 10 -11 10 -2 0
-4 -4 -4 -10z"/>
<path d="M3856 3344 c-3 -9 -2 -22 2 -31 6 -10 9 -5 9 16 0 35 -2 38 -11 15z"/>
<path d="M6440 3350 c0 -5 5 -10 10 -10 6 0 10 5 10 10 0 6 -4 10 -10 10 -5 0
-10 -4 -10 -10z"/>
<path d="M6478 3348 c5 -5 16 -8 23 -6 8 3 3 7 -10 11 -17 4 -21 3 -13 -5z"/>
<path d="M6315 3340 c-3 -6 1 -7 9 -4 18 7 21 14 7 14 -6 0 -13 -4 -16 -10z"/>
<path d="M5188 2950 c-17 -9 -124 -23 -164 -21 -35 2 -57 -18 -48 -43 5 -13
14 -16 38 -10 17 3 36 10 42 15 27 22 376 28 401 7 10 -8 17 -8 26 1 15 15 -7
31 -43 31 -15 0 -30 4 -36 10 -11 11 -197 20 -216 10z"/>
<path d="M2952 2930 c0 -14 2 -19 5 -12 2 6 2 18 0 25 -3 6 -5 1 -5 -13z"/>
<path d="M6550 2830 c0 -5 -7 -10 -15 -10 -9 0 -18 -7 -21 -15 -4 -8 -12 -15
-20 -15 -8 0 -14 -7 -14 -15 0 -8 -6 -15 -14 -15 -7 0 -16 -9 -19 -20 -4 -14
-14 -20 -34 -20 -19 0 -37 -10 -55 -30 -14 -16 -35 -30 -46 -30 -11 0 -25 -7
-33 -16 -7 -9 -30 -23 -51 -31 -21 -8 -44 -23 -51 -32 -6 -9 -29 -25 -49 -35
-21 -11 -38 -23 -38 -29 0 -5 -9 -7 -20 -4 -11 3 -20 1 -20 -4 0 -6 -14 -15
-30 -21 -17 -5 -35 -19 -41 -29 -5 -10 -16 -19 -23 -19 -8 0 -16 -7 -20 -15
-3 -8 -14 -15 -24 -15 -11 0 -31 -11 -46 -25 -27 -25 -87 -55 -116 -59 -8 -1
-32 -10 -54 -19 -21 -9 -42 -17 -47 -17 -5 0 -6 -6 -3 -13 3 -9 -4 -14 -23
-14 -26 0 -73 -16 -136 -49 -16 -8 -37 -14 -48 -14 -10 0 -19 -4 -19 -9 0 -5
-16 -11 -35 -13 -19 -2 -35 0 -35 4 0 15 -28 8 -34 -8 -3 -8 -11 -12 -17 -8
-7 4 -9 3 -5 -4 3 -5 0 -13 -6 -15 -10 -4 -10 -6 0 -6 6 -1 12 -5 12 -11 0
-12 -10 -13 -29 -1 -13 8 -13 12 0 27 13 16 12 16 -18 1 -17 -9 -34 -22 -36
-29 -4 -9 -17 -1 -40 23 -27 28 -45 37 -82 42 -26 4 -54 12 -61 18 -7 6 -18 8
-23 5 -5 -4 -25 2 -43 12 -18 10 -60 26 -93 36 -33 10 -71 23 -84 29 -13 7
-36 12 -50 12 -18 0 -25 5 -23 16 1 9 -6 19 -15 22 -10 2 -26 8 -36 12 -13 6
-16 3 -11 -9 9 -23 -19 -20 -41 4 -10 11 -25 20 -34 20 -8 0 -24 11 -36 25
-15 19 -32 26 -64 29 -26 2 -49 10 -56 20 -13 18 -41 22 -47 6 -3 -11 -78 19
-78 32 0 4 -5 8 -11 8 -8 0 -8 -4 -1 -13 7 -8 7 -17 -2 -28 -10 -15 -14 -15
-30 -3 -11 8 -16 20 -12 29 3 9 2 13 -4 10 -6 -3 -10 0 -10 7 0 14 -59 53 -76
50 -6 -1 -22 9 -36 23 -17 16 -32 23 -42 19 -12 -5 -19 0 -23 15 -3 11 -9 18
-14 15 -5 -3 -33 13 -62 35 -28 22 -64 49 -78 60 -15 11 -35 19 -47 16 -15 -3
-19 1 -15 16 4 14 0 19 -13 19 -16 0 -16 -2 -4 -10 12 -8 12 -11 -3 -28 -22
-24 -22 -35 2 -27 15 4 20 -1 25 -26 9 -49 7 -97 -5 -105 -8 -5 -8 -9 1 -14 7
-4 9 -13 5 -20 -6 -10 -9 -9 -15 0 -14 23 -27 0 -26 -44 1 -26 10 -53 19 -64
19 -21 24 -43 5 -24 -16 16 -28 15 -28 -3 0 -8 5 -15 11 -15 6 0 8 -8 4 -19
-6 -21 10 -38 20 -21 3 5 11 10 17 10 7 0 6 -6 -2 -15 -10 -12 -10 -18 0 -30
15 -18 6 -30 -23 -30 -16 0 -23 -7 -25 -24 -3 -22 -1 -23 27 -18 29 6 42 -5
22 -17 -5 -3 -5 -21 -1 -41 4 -20 4 -38 -1 -41 -5 -3 -2 -18 6 -34 21 -40 18
-50 -5 -20 l-21 25 7 -30 c4 -16 11 -38 16 -48 7 -14 5 -24 -8 -38 -22 -24
-10 -38 17 -20 25 15 34 9 24 -16 -4 -10 -9 -28 -11 -41 -1 -13 -8 -30 -14
-37 -8 -10 -6 -17 12 -29 12 -9 28 -16 35 -16 15 0 16 -10 3 -30 -9 -13 -11
-13 -19 0 -6 8 -13 11 -16 8 -11 -11 5 -29 23 -27 30 3 42 -1 42 -12 0 -18
153 -164 193 -184 l38 -20 22 30 c24 32 27 64 30 342 1 89 5 156 9 148 4 -7
29 -16 55 -19 56 -8 103 -25 103 -37 0 -12 -8 -11 -55 6 -48 17 -65 18 -65 5
0 -5 6 -10 14 -10 7 0 19 -7 26 -15 16 -20 74 -29 97 -16 11 6 13 11 5 11 -9
0 -11 7 -7 20 4 14 -1 27 -19 44 -14 13 -26 30 -26 39 0 9 -8 18 -18 22 -11 3
-24 16 -30 29 -6 13 -20 27 -31 31 -12 3 -21 15 -21 26 0 11 -6 22 -13 25 -8
3 -11 18 -9 44 2 22 8 37 13 34 5 -3 6 1 3 9 -7 20 14 31 31 17 8 -6 19 -9 25
-5 5 3 10 -1 10 -9 0 -19 31 -29 65 -20 23 6 25 10 19 37 -3 17 -13 37 -20 45
-18 17 -18 22 0 22 8 0 17 -8 20 -18 4 -10 35 -38 71 -61 36 -24 65 -47 65
-52 0 -5 7 -9 16 -9 8 0 31 -11 51 -24 19 -14 41 -22 48 -20 7 3 15 -2 18 -10
6 -14 37 -31 107 -56 19 -8 42 -19 51 -27 8 -7 22 -13 30 -13 8 0 19 -4 25 -8
30 -26 279 -59 288 -39 3 9 7 9 13 1 4 -6 41 -14 82 -18 76 -7 141 6 203 40
15 8 58 26 95 40 37 14 78 32 91 40 14 9 22 10 22 3 0 -6 19 6 42 25 23 20 46
36 51 36 5 0 26 14 47 30 21 17 41 30 46 30 4 0 16 7 25 16 11 10 39 18 71 19
43 2 49 1 35 -10 -9 -7 -17 -21 -17 -33 0 -15 -5 -19 -20 -15 -14 4 -20 0 -20
-11 0 -9 -4 -16 -8 -16 -14 0 -45 -74 -33 -78 6 -2 11 -8 11 -13 0 -4 -6 -6
-14 -3 -21 8 -32 -24 -28 -81 2 -27 4 -65 4 -82 2 -37 13 -45 15 -10 1 12 5
37 8 56 5 26 9 31 16 20 7 -12 9 -12 9 1 1 11 4 10 15 -4 8 -11 15 -14 15 -8
0 7 5 12 10 12 6 0 10 -6 10 -14 0 -8 4 -18 10 -21 6 -3 7 1 4 9 -3 9 -1 16 5
16 6 0 10 3 10 8 -5 28 4 32 15 7 16 -38 29 -107 34 -183 1 -13 5 -21 10 -19
4 3 8 -14 10 -36 6 -96 15 -147 24 -147 6 0 8 -12 4 -30 -3 -19 -2 -29 4 -25
6 3 10 0 10 -8 0 -8 11 -27 25 -43 14 -16 25 -32 25 -36 0 -5 7 -8 15 -8 8 0
15 4 15 9 0 5 11 12 25 15 14 4 25 12 25 19 0 6 27 32 61 57 33 25 78 71 100
102 22 32 43 58 47 58 4 0 17 -7 29 -15 20 -14 22 -14 22 2 0 10 5 54 10 98 5
44 10 113 10 153 1 57 4 72 16 72 20 0 19 17 -1 28 -14 8 -15 24 -10 113 7
116 7 106 6 243 -1 66 3 102 11 106 6 4 8 13 5 19 -4 6 -4 16 0 22 4 7 8 45
10 86 2 41 6 83 9 94 4 11 2 19 -4 19 -6 0 -11 -4 -11 -10z m-2700 -340 c0 -5
-4 -10 -10 -10 -5 0 -10 5 -10 10 0 6 5 10 10 10 6 0 10 -4 10 -10z m-4 -57
c-10 -10 -19 5 -10 18 6 11 8 11 12 0 2 -7 1 -15 -2 -18z m467 -3 c-3 -11 0
-20 6 -20 8 0 8 -6 -1 -20 -7 -11 -15 -15 -19 -9 -3 6 -10 10 -15 9 -5 -1 -10
4 -12 12 -2 8 0 9 5 3 19 -23 32 -15 26 15 -3 18 -1 30 5 30 5 0 8 -9 5 -20z
m-82 -231 c-5 -13 -10 -19 -10 -12 -1 15 10 45 15 40 3 -2 0 -15 -5 -28z
m1774 14 c5 -14 -13 -17 -39 -7 -24 9 -19 19 9 19 14 0 27 -6 30 -12z m-15
-50 c0 -11 -6 -14 -22 -9 -13 3 -29 6 -35 6 -7 0 -13 4 -13 9 0 5 16 9 35 9
25 0 35 -5 35 -15z m-1757 -34 c4 -16 3 -18 -9 -8 -16 13 -19 29 -5 29 5 0 11
-9 14 -21z m1673 -26 c-2 -3 -9 -2 -15 2 -8 4 -7 13 1 28 l13 22 3 -23 c2 -13
1 -26 -2 -29z m89 7 c-3 -5 -12 -10 -20 -10 -8 0 -17 5 -20 10 -4 6 5 10 20
10 15 0 24 -4 20 -10z m-2095 -101 c0 -6 -4 -7 -10 -4 -5 3 -10 11 -10 16 0 6
5 7 10 4 6 -3 10 -11 10 -16z m-2 -136 c-14 -18 -19 -12 -11 16 4 16 8 19 14
10 4 -7 3 -19 -3 -26z"/>
<path d="M3807 2644 c-10 -10 -9 -72 2 -78 7 -5 21 39 22 71 1 10 -16 15 -24
7z"/>
<path d="M5905 2320 c-4 -6 7 -10 25 -10 18 0 29 4 25 10 -3 6 -15 10 -25 10
-10 0 -22 -4 -25 -10z"/>
<path d="M4390 2286 c0 -8 5 -18 10 -21 6 -3 10 3 10 14 0 12 -4 21 -10 21 -5
0 -10 -6 -10 -14z"/>
<path d="M5872 2280 c-14 -23 -12 -24 22 -9 14 7 23 16 20 20 -9 15 -29 10
-42 -11z"/>
<path d="M3330 2272 c0 -5 7 -16 16 -23 14 -12 16 -11 13 5 -4 20 -29 35 -29
18z"/>
<path d="M4320 2170 c0 -5 5 -10 11 -10 5 0 7 5 4 10 -3 6 -8 10 -11 10 -2 0
-4 -4 -4 -10z"/>
<path d="M4720 2158 c0 -4 6 -8 14 -8 8 0 17 4 20 8 2 4 -4 8 -15 8 -10 0 -19
-4 -19 -8z"/>
<path d="M4799 2128 c7 -10 23 -17 35 -17 20 1 20 2 1 6 -11 3 -27 10 -35 17
-13 10 -13 9 -1 -6z"/>
<path d="M5920 2041 c0 -5 5 -13 10 -16 6 -3 10 -2 10 4 0 5 -4 13 -10 16 -5
3 -10 2 -10 -4z"/>
<path d="M3417 2006 c-19 -15 -22 -26 -6 -26 15 0 41 28 31 33 -4 3 -15 0 -25
-7z"/>
<path d="M5835 2000 c-3 -5 -1 -10 4 -10 6 0 11 5 11 10 0 6 -2 10 -4 10 -3 0
-8 -4 -11 -10z"/>
<path d="M4360 1970 c0 -5 9 -15 20 -23 11 -8 17 -17 13 -20 -3 -4 1 -7 9 -7
28 0 16 43 -14 51 -16 4 -28 3 -28 -1z"/>
<path d="M3909 1724 c-12 -14 -11 -16 5 -13 11 2 21 10 24 17 5 17 -13 15 -29
-4z"/>
<path d="M5123 1615 c-12 -9 -26 -14 -30 -13 -6 1 -41 -13 -91 -38 -1 0 2 -12
7 -25 5 -13 10 -18 10 -11 1 7 15 12 34 12 32 1 77 29 77 49 0 6 8 7 18 4 14
-6 15 -4 5 9 -7 8 -10 18 -6 21 12 12 -2 7 -24 -8z"/>
<path d="M3895 1601 c-3 -5 -1 -12 5 -16 5 -3 10 1 10 9 0 18 -6 21 -15 7z"/>
<path d="M4967 1533 c-10 -9 -9 -23 2 -23 5 0 11 7 15 15 5 15 -5 20 -17 8z"/>
<path d="M5480 1491 c0 -6 4 -13 10 -16 6 -3 7 1 4 9 -7 18 -14 21 -14 7z"/>
<path d="M4507 1439 c7 -7 15 -10 18 -7 3 3 -2 9 -12 12 -14 6 -15 5 -6 -5z"/>
<path d="M4468 1423 c7 -3 16 -2 19 1 4 3 -2 6 -13 5 -11 0 -14 -3 -6 -6z"/>
<path d="M4640 1392 c0 -7 6 -12 13 -12 8 0 7 -4 -3 -10 -8 -5 -10 -10 -4 -10
5 0 18 6 29 13 14 11 15 16 5 22 -9 5 -11 4 -6 -3 9 -16 -7 -15 -22 0 -9 9
-12 9 -12 0z"/>
<path d="M4723 1375 c0 -8 4 -12 9 -9 5 3 6 10 3 15 -9 13 -12 11 -12 -6z"/>
<path d="M5610 1296 c0 -2 7 -7 16 -10 8 -3 12 -2 9 4 -6 10 -25 14 -25 6z"/>
<path d="M4786 1263 c-6 -14 -5 -15 5 -6 7 7 10 15 7 18 -3 3 -9 -2 -12 -12z"/>
<path d="M4860 1190 c0 -5 5 -10 11 -10 5 0 7 5 4 10 -3 6 -8 10 -11 10 -2 0
-4 -4 -4 -10z"/>
<path d="M5010 851 c0 -6 4 -13 10 -16 6 -3 7 1 4 9 -7 18 -14 21 -14 7z"/>
<path d="M5065 560 c3 -5 8 -10 11 -10 2 0 4 5 4 10 0 6 -5 10 -11 10 -5 0 -7
-4 -4 -10z"/>
<path d="M5770 459 c0 -5 5 -7 10 -4 6 3 10 8 10 11 0 2 -4 4 -10 4 -5 0 -10
-5 -10 -11z"/>
</g>
</svg>
